<svg xmlns="http://www.w3.org/2000/svg" aria-hidden="true" viewBox="0 0 120 120"><defs><linearGradient id="b" x1="0" x2="0" y1="0" y2="1"><stop offset="0" stop-color="#C54330"/><stop offset="1" stop-color="#912418"/></linearGradient><linearGradient id="a" x1="0" x2="0" y1="0" y2="1"><stop offset="0" stop-color="#F5F0E8"/><stop offset="1" stop-color="#D8D2C3"/></linearGradient></defs><ellipse cx="60" cy="100" fill="#1A1916" opacity=".14" rx="26" ry="3"/><path fill="#E5E1DA" stroke="#1A1916" stroke-linejoin="round" stroke-width=".6" d="M40 42h34v48H40Z" transform="translate(-8 6)skewY(8)"/><path fill="#F5F0E8" stroke="#1A1916" stroke-linejoin="round" stroke-width=".7" d="M36 44h38l10 10v40H36Z"/><path fill="url(#a)" stroke="#1A1916" stroke-linejoin="round" stroke-width=".6" d="m74 44 10 10H74Z"/><path fill="url(#b)" stroke="#1A1916" stroke-width=".5" d="M36 44h48v5H36z"/><path fill="none" stroke="#8A8780" stroke-linecap="round" stroke-width="1.2" d="M42 62h34m-34 6h34m-34 6h24m-24 8h32m-32 6h18"/><g transform="translate(70 82)"><circle r="7" fill="url(#b)" stroke="#1A1916" stroke-width=".6"/><path fill="none" stroke="#F5F0E8" stroke-linecap="round" stroke-linejoin="round" stroke-width="1.6" d="m-3 0 2 2 4-4"/></g></svg>